@startuml
scale 1350 width

[*] ---> FullChainedTransfiguration: [1]

state FullChainedTransfiguration {
    [*] ---> ApplicationChainedTransfiguration: [2]
}
ApplicationChainedTransfiguration ---> FullChainedTransfiguration: [4]

state PrepareAppConfTransfiguration {
}

state ConfReaderToContextTransfiguration {
}

state GenerateTemplateFileNameViaPyST {
}

state GenerateTemplateStubViaJinja2 {
}

state GenerateTemplateOutputViaJinja2 {
}

state ValidateCollectionTags {
}

state AttributeChainedTransfiguration {
    [*] -> GenerateTemplateFileNameViaPyST:[2.4/5.1]
    GenerateTemplateFileNameViaPyST -> GenerateTemplateStubViaJinja2:[2.4/5.2]
    GenerateTemplateStubViaJinja2 -> GenerateTemplateOutputViaJinja2:[2.4/5.3]
    GenerateTemplateOutputViaJinja2 -> [*]:[2.4/5.4]
}

state ApplicationChainedTransfiguration {
    [*] -> PrepareAppConfTransfiguration:[2.1]
    PrepareAppConfTransfiguration -> ConfReaderToContextTransfiguration:[2.2]
    ConfReaderToContextTransfiguration -> ValidateCollectionTags:[2.3]
    ValidateCollectionTags -> AttributeChainedTransfiguration: [2.4]mbean
    ConfReaderToContextTransfiguration -> AttributeChainedTransfiguration: [2.5]connection
    AttributeChainedTransfiguration -> [*]:[2.6]
}

@enduml